<svg width="369" height="111" viewBox="0 0 369 111" fill="none" xmlns="http://www.w3.org/2000/svg">
<rect width="369" height="111" rx="6" fill="url(#paint0_linear_2831_9757)"/>
<path d="M96 69.3982H107.429C113.26 69.3982 116.619 66.5137 116.619 61.5745C116.619 58.2158 115.113 55.924 112.14 54.9362C114.804 53.7903 116.194 51.4985 116.194 48.2979C116.194 43.4772 112.796 40.5137 107.236 40.5137H96V69.3982ZM106.811 44.9787C109.592 44.9787 111.136 46.3222 111.136 48.8115C111.136 51.3799 109.63 52.8419 106.927 52.8419H100.942V44.9787H106.811ZM107.236 57.1094C109.978 57.1094 111.561 58.4924 111.561 60.9422C111.561 63.5502 110.016 64.9331 107.236 64.9331H100.942V57.1094H107.236Z" fill="#E1E1E1"/>
<path d="M128.3 69.9119C133.281 69.9119 136.756 67.3435 137.566 63.076H133.203C132.663 64.9331 130.964 65.9605 128.377 65.9605C125.249 65.9605 123.473 64.2219 123.125 60.7842L137.489 60.7447V59.2827C137.489 53.1976 133.86 49.2857 128.145 49.2857C122.546 49.2857 118.646 53.5137 118.646 59.6383C118.646 65.6839 122.624 69.9119 128.3 69.9119ZM128.184 53.2371C131.002 53.2371 132.817 55.0152 132.817 57.7021H123.241C123.705 54.7781 125.404 53.2371 128.184 53.2371Z" fill="#E1E1E1"/>
<path d="M145.281 69.3982V58.8875C145.281 55.7264 147.057 53.6717 149.953 53.6717C152.385 53.6717 153.968 55.2523 153.968 58.5319V69.3982H158.679V57.386C158.679 52.3283 156.208 49.2857 151.42 49.2857C148.833 49.2857 146.516 50.4316 145.319 52.4073L144.933 49.8784H140.57V69.3982H145.281Z" fill="#E1E1E1"/>
<path d="M161.537 59.2036C161.537 64.8541 165.089 69.003 170.495 69.003C173.236 69.003 175.592 67.8571 176.789 66.0395V69.2796C176.789 72.5198 174.703 74.614 171.46 74.614C168.564 74.614 166.672 73.1125 166.363 70.5836H161.653C162.232 75.7994 165.977 79 171.46 79C177.638 79 181.461 74.9301 181.461 68.4103V49.8784H177.097L176.827 52.5653C175.707 50.4711 173.468 49.2462 170.611 49.2462C165.166 49.2462 161.537 53.5137 161.537 59.2036ZM166.286 59.0851C166.286 55.8845 168.294 53.4742 171.421 53.4742C174.703 53.4742 176.673 55.766 176.673 59.0851C176.673 62.4833 174.665 64.8146 171.421 64.8146C168.332 64.8146 166.286 62.3647 166.286 59.0851Z" fill="#E1E1E1"/>
<path d="M197.616 49.7994C196.844 49.6018 196.187 49.5228 195.531 49.5228C192.983 49.5228 191.168 50.8267 190.357 52.7629L190.087 49.9179H185.646V69.3982H190.357V59.9149C190.357 56.1216 192.481 54.2644 195.878 54.2644H197.616V49.7994Z" fill="#E1E1E1"/>
<path d="M215.47 40.5137H210.528V69.3982H227.285V64.7356H215.47V40.5137Z" fill="#E1E1E1"/>
<path d="M232.275 45.9666C233.82 45.9666 235.094 44.6626 235.094 43.0426C235.094 41.4225 233.82 40.1581 232.275 40.1581C230.654 40.1581 229.379 41.4225 229.379 43.0426C229.379 44.6626 230.654 45.9666 232.275 45.9666ZM229.92 69.3982H234.631V49.8784H229.92V69.3982Z" fill="#E1E1E1"/>
<path d="M243.171 69.3982L243.48 66.3556C244.6 68.6079 247.032 69.9119 249.89 69.9119C255.373 69.9119 258.964 65.7629 258.964 59.7568C258.964 53.5927 255.643 49.2462 250.199 49.2462C247.303 49.2462 244.754 50.5502 243.519 52.7234V40H238.808V69.3982H243.171ZM243.557 59.5593C243.557 56.0426 245.681 53.5927 248.924 53.5927C252.245 53.5927 254.214 56.0821 254.214 59.5593C254.214 63.0365 252.245 65.4863 248.924 65.4863C245.681 65.4863 243.557 63.076 243.557 59.5593Z" fill="#E1E1E1"/>
<path d="M273.995 49.7994C273.223 49.6018 272.566 49.5228 271.91 49.5228C269.361 49.5228 267.547 50.8267 266.736 52.7629L266.465 49.9179H262.025V69.3982H266.736V59.9149C266.736 56.1216 268.859 54.2644 272.257 54.2644H273.995V49.7994Z" fill="#E1E1E1"/>
<path d="M281.416 69.9119C284.389 69.9119 286.976 68.5289 287.787 66.5137L288.134 69.3982H292.266V57.5441C292.266 52.1307 289.1 49.2857 283.964 49.2857C278.79 49.2857 275.392 52.0517 275.392 56.2796H279.408C279.408 54.2249 280.952 53.0395 283.732 53.0395C286.126 53.0395 287.671 54.1064 287.671 56.7538V57.1884L281.956 57.6231C277.439 57.9787 274.89 60.231 274.89 63.8267C274.89 67.5015 277.361 69.9119 281.416 69.9119ZM282.96 66.2766C280.836 66.2766 279.678 65.4073 279.678 63.6292C279.678 62.0486 280.798 61.0608 283.732 60.7842L287.709 60.4681V61.4954C287.709 64.4985 285.856 66.2766 282.96 66.2766Z" fill="#E1E1E1"/>
<path d="M308.174 49.7994C307.401 49.6018 306.745 49.5228 306.089 49.5228C303.54 49.5228 301.725 50.8267 300.915 52.7629L300.644 49.9179H296.204V69.3982H300.915V59.9149C300.915 56.1216 303.038 54.2644 306.436 54.2644H308.174V49.7994Z" fill="#E1E1E1"/>
<path d="M309.578 78.4468C310.621 78.7234 311.779 78.8815 313.092 78.8815C316.219 78.8815 318.227 77.3799 319.656 73.7447L329 49.8784H324.135L318.961 64.1033L314.057 49.8784H309.076L316.76 70.228L316.219 71.69C315.408 73.9818 314.25 74.4164 312.397 74.4164H309.578V78.4468Z" fill="#E1E1E1"/>
<path d="M51.9161 33.4845C53.8954 31.5052 57.1046 31.5052 59.0839 33.4845L77.5155 51.9161C79.4948 53.8954 79.4948 57.1046 77.5155 59.0839L59.0839 77.5155C57.1046 79.4948 53.8954 79.4948 51.9161 77.5155L33.4845 59.0839C31.5052 57.1046 31.5052 53.8954 33.4845 51.9161L51.9161 33.4845Z" fill="#140945"/>
<path d="M51.9161 33.4845C53.8954 31.5052 57.1046 31.5052 59.0839 33.4845L77.5155 51.9161C79.4948 53.8954 79.4948 57.1046 77.5155 59.0839L59.0839 77.5155C57.1046 79.4948 53.8954 79.4948 51.9161 77.5155L33.4845 59.0839C31.5052 57.1046 31.5052 53.8954 33.4845 51.9161L51.9161 33.4845Z" fill="url(#paint1_angular_2831_9757)"/>
<path d="M55.4541 39.7888C55.4541 38.7566 56.702 38.2398 57.4318 38.9696L73.1438 54.6816C73.5963 55.134 73.5963 55.8676 73.1438 56.32L57.4319 72.0319C56.7021 72.7617 55.4542 72.2449 55.4542 71.2128L55.4541 39.7888Z" fill="url(#paint2_angular_2831_9757)"/>
<defs>
<linearGradient id="paint0_linear_2831_9757" x1="184.5" y1="0" x2="184.5" y2="111" gradientUnits="userSpaceOnUse">
<stop stop-color="#190B54"/>
<stop offset="1"/>
</linearGradient>
<radialGradient id="paint1_angular_2831_9757" cx="0" cy="0" r="1" gradientUnits="userSpaceOnUse" gradientTransform="translate(55.5002 55.5001) scale(22.6269)">
<stop stop-color="#190B54"/>
<stop offset="0.25" stop-color="#2A1290"/>
<stop offset="0.5" stop-color="#5C3BE6"/>
<stop offset="0.75" stop-color="#805CED"/>
<stop offset="1" stop-color="#D4BBFA" stop-opacity="0"/>
</radialGradient>
<radialGradient id="paint2_angular_2831_9757" cx="0" cy="0" r="1" gradientUnits="userSpaceOnUse" gradientTransform="translate(55.4538 55.5002) rotate(-180) scale(40.1016 38.6694)">
<stop stop-color="white"/>
<stop offset="1" stop-color="white" stop-opacity="0.66"/>
</radialGradient>
</defs>
</svg>
